# xmcd
#
# Track frame offsets:
#	180
#	20625
#	35926
#	48021
#	62938
#	78559
#	93063
#	111395
#	129290
#	143722
#	160105
#	175767
#	189053
#	211019
#	229368
#	242866
#
# Disc length: 3474 seconds
#
# Revision: 0
# Processed by: cddbd v1.4PL0 Copyright (c) Steve Scherf et al.
# Submitted via: dBpowerAMP V4.0
#
DISCID=d20d9010
DTITLE=Various Artist - French Kiss
DYEAR=1994
DGENRE=Blues
TTITLE0=Lete Indien (Africa) - Joe Dassin
TTITLE1=Laisse Moi T'aimer - Mike Brant
TTITLE2=Tu te Reconnaitras - Anne Marie David
TTITLE3=Une Belle Histoire - Michel Fugain
TTITLE4=Butterfly - Daniel Gerard
TTITLE5=Viens, Viens - Les Compagnons De La Chanson
TTITLE6=Paroles, Paroles - Dalida (avec Alan Delon)
TTITLE7=Avant De Nous Dire Adieu - Jeane Manson
TTITLE8=La Femme De Mon Ami - Enrico Macias
TTITLE9=Mais Dans La Lumiere - Mike Brant
TTITLE10=Et Si Tu N'existais Pas - Joe Dassin
TTITLE11=Amour Perdu - Salvadore Adamo
TTITLE12=Aranjuez Mon Amour - Richard Anthony
TTITLE13=Nathalie - Gilbert Becaud
TTITLE14=Tombe La Neige - Salvadore Adamo
TTITLE15=Les Feuilles Mortes - Yves Montand
EXTD=
EXTT0=
EXTT1=
EXTT2=
EXTT3=
EXTT4=
EXTT5=
EXTT6=
EXTT7=
EXTT8=
EXTT9=
EXTT10=
EXTT11=
EXTT12=
EXTT13=
EXTT14=
EXTT15=
PLAYORDER=
